<svg version="1.1"
	 xmlns="http://www.w3.org/2000/svg" xmlns:xlink="http://www.w3.org/1999/xlink" xmlns:a="http://ns.adobe.com/AdobeSVGViewerExtensions/3.0/"
	 x="0px" y="0px" width="700px" height="810px" viewBox="-2 -2 700 810" overflow="visible" enable-background="new -2 -2 700 810"
	 xml:space="preserve">
   <polygon id="hexouter" fill="#222222" points="0,602.2 0,200.7 347.7,0 695.3,200.7 695.3,602.2 347.7,802.8 "/>
   <polygon id="hexinner" fill="#FFFFFF" points="645.3,573.3 347.7,745.1 50,573.3 50,229.5 347.7,57.7 645.3,229.5 "/>
   <path id="building_1_" fill="#EF3D30" d="M586.3,526.2v-17.9l-51.7-30.8V306.9l-0.1,0.1v-1.8l-38.6,19.2H199.2l-38.5-19.2v172.2
   	l-51.9,30.8l0.1,0.1v17.8l-26.7,15.4L102,553l-19.8-11.4v21.4l265.1,150.8l265.8-153.4v-18.8L586.3,526.2z M160.8,478.3l38.6,19.4
   	h32.8V337.4h-9.3v-7.7h37.8v7.6h-10.5v160.4h36.1V351.1h118v146.6h34.7V337.4h-9.2v-7.7h37.5v7.6H458v160.4h37.9l37.9-18.8
   	l49.5,29.4L347.6,644.4L111.8,508.3l49.8-29.6L160.8,478.3z M372.8,678.6l-25.4,14.5L85.1,541.7l23.8-13.7l237.5,137.1l0.7,0.4
   	l0.7-0.4L586.3,528l23.8,13.7L372.8,678.6z M495.9,234.1l38.6-19.4v-15.9L495.9,218H199.4l-38.6-19.2v15.9l38.6,19.4H495.9z
   	 M495.9,309.1l38.6-19.4v-57.9l-0.1,0.1v-1.8l-38.6,19.2H199.2l-38.5-19.2v59.5l38.6,19.4H495.9z"/>
   <polygon id="roof" fill="#F26C66" points="160.8,198.8 347,91 534.5,198.8 496.2,218 199.4,218 "/>
   <path id="detailz" fill="#D52827" d="M495.8,254.6l38.6-18.9v-5.5l-38.6,19.2H199.2l-38.6-19.2v5.1l38.6,19.4H495.8z
   	 M495.8,223.3l38.6-19.1v-5.4L495.8,218H199.2l-38.6-19.2v5.1l38.6,19.4H495.8z M236.8,497.7h1v-161h-1V497.7z M244.6,497.7h1v-161
   	h-1V497.7z M451.8,497.7h1V336.9h-1V497.7z M495.9,495.2H460V339.2h9.2v-9.6h26.5l38.6-18.9v-5.5l-38.6,19.2H199.2l-38.6-19.2v5.1
   	l38.6,19.4h21.6v9.7h9.3v155.8h-30.8l-38.6-19.4v2.5l38.6,19.4h32.8V337.4h-9.3v-7.7h37.8v7.6h-10.5v160.4h188.8V337.4h-9.2v-7.7
   	h37.5v7.6H458v160.4h37.9l38.6-19.1v-2.5L495.9,495.2z M343.8,495.2h-54.6V354h54.6V495.2z M401.3,495.2h-54.6V354h54.6V495.2z
   	 M436.9,339.4v155.8h-32.7V351.1h-118v144.1h-34.1V339.2h10.5v-9.6h165.1v9.7H436.9z M444.1,497.7h1V336.9h-1V497.7z"/>
   <path id="sign" fill="#FFFFFF" d="M225.3,282l-7.3-17.3h-4.8v33.2h5.7v-18.5l7.3,18.5h4.7v-33.2h-5.5V282z M246.1,264.1
   	c-6.6,0-9.8,3.9-9.8,11.8v11.2c0,1.3,0,2.5,0.6,3.6c0.1,1.2,0.6,2.2,1,3.2c0.4,1,1,1.7,1.7,2.5c0.7,0.7,1.6,1.2,2.8,1.6
   	c1,0.4,2.3,0.6,3.8,0.6s2.6-0.1,3.8-0.6c1.2-0.3,2-0.9,2.8-1.6c0.7-0.7,1.3-1.6,1.7-2.6c0.4-1,0.9-2,1-3.2c0.1-1,0.3-2.3,0.3-3.6
   	v-11.1C255.9,268,252.7,264.1,246.1,264.1z M249.1,288.6c0,3.2-1,5-3.1,4.8c-2,0-3.1-1.7-3.1-5V274c0-0.6,0-1,0.1-1.6
   	c0.1-0.6,0.3-1,0.4-1.6c0.1-0.4,0.4-0.9,0.9-1.2c0.4-0.3,1-0.4,1.6-0.4c2,0,3.1,1.7,3.1,5V288.6z M277,267.3c-0.7-1-1.9-1.6-3.4-2
   	c-1.5-0.4-3.4-0.6-5.5-0.6h-7v33.5h6.8c1.3,0,2.6-0.1,3.6-0.3c1-0.1,2-0.4,2.8-0.7c0.9-0.3,1.6-0.7,2-1.2s1-1,1.3-1.6
   	c0.4-0.6,0.7-1.3,0.9-2.2c0.3-0.9,0.3-1.8,0.4-2.6c0.1-0.9,0.1-1.9,0.1-3.1v-10.9c0-2-0.1-3.6-0.4-5
   	C278.5,269.3,277.9,268.2,277,267.3z M272.4,291.3c0,0.3-0.1,0.6-0.3,0.9c-0.1,0.3-0.3,0.4-0.4,0.6c-0.3,0.1-0.4,0.1-0.9,0.3
   	c-0.4,0.1-0.7,0.1-1.2,0.1H268v-23.9c1.6,0,2.8,0.3,3.4,0.6c0.7,0.3,1,1,1,2.2V291.3z M284.6,297.9h13.8v-4.7h-7.1V283h5.1v-4.7
   	h-5.1v-9h7.1v-4.7h-13.8V297.9z M311.1,263.9c-2.9,0-5.1,0.7-6.8,2.3s-2.6,3.6-2.6,6.4c0,0.9,0.1,1.7,0.3,2.6
   	c0.1,0.9,0.4,1.6,0.7,2.2c0.3,0.6,0.7,1.2,1.3,1.7c0.6,0.6,1,1,1.5,1.5c0.4,0.4,0.9,0.9,1.6,1.5l2,1.7c2.6,2.3,3.9,4.7,3.9,7
   	c0,1.7-0.7,2.6-2,2.6c-0.4,0-0.9-0.1-1.2-0.4c-0.3-0.3-0.6-0.6-0.7-1c-0.1-0.3-0.4-0.7-0.4-1.5s-0.1-1.2-0.1-1.7v-1.7l-6.8,1.3
   	c0,1.5,0.3,2.6,0.4,4.1c0.4,1.2,1,2.2,1.7,3.2c0.7,1,1.7,1.7,2.9,2.3s2.5,0.9,4.1,0.9c2.5,0,4.5-0.7,6.1-2.2
   	c1.6-1.5,2.5-3.4,2.5-5.7c0-1.3-0.1-2.5-0.4-3.5c-0.3-1.2-0.7-2.2-1.3-3.1c-0.6-0.9-1.3-1.7-1.9-2.5c-0.6-0.7-1.3-1.5-2.3-2.3
   	c-0.3-0.3-0.7-0.7-1.3-1.2c-0.6-0.6-1-1-1.5-1.3c-0.3-0.3-0.7-0.7-1.2-1.3c-0.4-0.6-0.9-1.2-1-1.7c-0.1-0.6-0.3-1.2-0.3-1.9
   	s0.1-1.5,0.6-2c0.3-0.6,0.9-0.9,1.6-0.9c0.4,0,0.7,0,1,0.3c0.4,0.3,0.6,0.6,0.7,1c0.1,0.3,0.3,0.7,0.3,1.2c0.1,0.4,0.1,0.9,0.1,1.3
   	v1.3l7-1v-0.9c0-2.5-0.9-4.5-2.5-6.1C315.5,264.8,313.5,263.9,311.1,263.9z M336.2,287.8c0,0.7-0.1,1.5-0.1,2c0,0.6-0.1,1.2-0.3,1.7
   	c-0.1,0.6-0.4,1.2-0.9,1.5c-0.4,0.3-0.9,0.4-1.5,0.4c-1.9,0-2.9-1.7-2.9-5v-14.4c0-3.4,1-5,2.9-5c0.6,0,1,0.1,1.3,0.4
   	c0.3,0.3,0.6,0.6,0.7,0.9c0.1,0.3,0.3,0.7,0.4,1.3c0,0.6,0.1,1,0.1,1.5v4.7h6.6V275c0-1.3-0.1-2.5-0.3-3.6c-0.3-1.2-0.6-2.2-1-3.1
   	s-1-1.7-1.7-2.3c-0.7-0.6-1.6-1.2-2.6-1.5c-1-0.4-2.3-0.6-3.6-0.6c-6.4,0-9.6,3.9-9.6,11.8v11.1c0,1.5,0.1,2.6,0.4,3.9
   	c0.3,1.2,0.6,2.2,1,3.2c0.4,1,1,1.9,1.7,2.6c0.7,0.6,1.6,1.2,2.8,1.6c1,0.4,2.3,0.6,3.8,0.6s2.8-0.1,3.8-0.6c1-0.4,1.9-1,2.6-1.8
   	s1.3-1.7,1.7-2.6c0.4-0.9,0.7-2,0.9-3.1s0.3-2.2,0.3-3.5v-2.8h-6.6V287.8z M359.2,278.4h-4.8v-13.7h-6.7v33.2h6.7V283h4.8v14.9h6.7
   	v-33.2h-6.7V278.4z M381.2,264.1c-6.6,0-9.8,3.9-9.8,11.8v11.2c0,1.3,0.1,2.5,0.6,3.6c0.1,1.2,0.6,2.2,1,3.2s1,1.7,1.7,2.5
   	c0.7,0.7,1.6,1.2,2.8,1.6c1,0.4,2.3,0.6,3.8,0.6c1.5,0,2.6-0.1,3.8-0.6c1.2-0.3,2-0.9,2.8-1.6c0.7-0.7,1.3-1.6,1.7-2.6
   	c0.4-1,0.9-2,1-3.2c0.1-1,0.3-2.3,0.3-3.6v-11.1C391,268,387.8,264.1,381.2,264.1z M384.1,288.6c0,3.2-1,5-3.1,4.8
   	c-2,0-3.1-1.7-3.1-5V274c0-0.6,0-1,0.1-1.6c0.1-0.6,0.3-1,0.4-1.6c0.1-0.4,0.4-0.9,0.9-1.2c0.4-0.3,1-0.4,1.6-0.4c2,0,3.1,1.7,3.1,5
   	V288.6z M405.7,264.1c-6.6,0-9.8,3.9-9.8,11.8v11.2c0,1.3,0,2.5,0.6,3.6c0.1,1.2,0.6,2.2,1,3.2s1,1.7,1.7,2.5
   	c0.7,0.7,1.6,1.2,2.8,1.6c1,0.4,2.3,0.6,3.8,0.6c1.5,0,2.6-0.1,3.8-0.6c1.2-0.3,2-0.9,2.8-1.6c0.7-0.7,1.3-1.6,1.7-2.6
   	c0.4-1,0.9-2,1-3.2c0.1-1,0.3-2.3,0.3-3.6v-11.1C415.5,268,412.3,264.1,405.7,264.1z M408.6,288.6c0,3.2-1,5-3.1,4.8
   	c-2,0-3.1-1.7-3.1-5V274c0-0.6,0-1,0.1-1.6c0.1-0.6,0.3-1,0.4-1.6c0.1-0.4,0.4-0.9,0.9-1.2c0.4-0.3,1-0.4,1.6-0.4c2,0,3.1,1.7,3.1,5
   	V288.6z M427.6,264.7h-6.7V298h13.3v-4.7h-6.6V264.7z M438.1,298h6v-5.8h-6V298z M449.7,297.9h6.7v-33.2h-6.7V297.9z M471.6,264.1
   	c-6.6,0-9.8,3.9-9.8,11.8v11.2c0,1.3,0.1,2.5,0.6,3.6c0.1,1.2,0.6,2.2,1,3.2s1,1.7,1.7,2.5c0.7,0.7,1.6,1.2,2.8,1.6
   	c1,0.4,2.3,0.6,3.8,0.6c1.5,0,2.6-0.1,3.8-0.6c1.2-0.3,2-0.9,2.8-1.6c0.7-0.7,1.3-1.6,1.7-2.6c0.4-1,0.9-2,1-3.2
   	c0.1-1,0.3-2.3,0.3-3.6v-11.1C481.3,268,478.1,264.1,471.6,264.1z M474.6,288.6c0,3.2-1,5-3.1,4.8c-2,0-3.1-1.7-3.1-5V274
   	c0-0.6,0-1,0.1-1.6c0.1-0.6,0.3-1,0.4-1.6c0.1-0.4,0.4-0.9,0.9-1.2s1-0.4,1.6-0.4c2,0,3.1,1.7,3.1,5V288.6z"/>
</svg>
