<?xml version="1.0" encoding="UTF-8" standalone="no"?>
<svg viewBox="0 0 377 133" height="100%" width="100%" version="1.1" xmlns="http://www.w3.org/2000/svg" xml:space="preserve">
<path fill="#3c3c36" d="M374.81,97.002c-7.26-16.028-14.7-32.192-22.13-48.059,4.625-10.161,9.314-20.29,13.945-30.124,1.483-3.149,2.972-6.295,4.469-9.438l1.267-2.66-2.872-0.657c-10.58-2.419-21.66-4.133-32.92-5.094-7.55-0.643-15.39-0.97-23.33-0.97-46.09,0-92.27,10.833-136.93,21.308-6.888,1.616-13.982,3.28-20.979,4.88l-0.61-14.739-0.11-2.796-2.74,0.584c-36.3,7.754-64.256,11.212-90.65,11.212-19.898,0-38.407-2.009-56.583-6.144l-4.637-1.054,1.963,4.332c7.178,15.838,14.621,32.002,22.13,48.062-6.174,13.553-12.368,26.858-18.415,39.565l-1.266,2.659,2.871,0.657c19.678,4.5,39.557,6.68,60.772,6.68,1.084,0,2.183-0.006,3.285-0.017l0.616,15.394,0.09,2.323,2.252,0.092h0.083c0.848,0,5.465-0.116,13.185-0.947,34.916-2.963,69.345-10.888,102.64-18.516,41.214-9.441,83.83-19.223,126.53-19.223,19.483,0,37.604,1.945,55.4,5.967l4.631,1.043-1.959-4.328z"/>
<path fill="#9c9b9b" d="m73.698,115.36,0.624,15.133c25.35-6.409,49.669-15.25,73.824-25.19-24.701,5.024-49.249,8.794-74.448,10.057"/>
<path fill="#f2f2eb" d="m350.08,48.958c6.179-13.59,12.468-27.118,18.883-40.591-72.677-16.615-142.73,4.168-213.47,20.203,1.023,24.826,2.044,49.654,3.071,74.478-24.169,10.272-48.494,19.678-73.753,26.926,96.921-8.218,189.56-54.21,287.85-31.995-7.427-16.39-14.952-32.728-22.581-49.021z"/>
<path fill="#f2f2eb" d="M152.36,11.546c-49.64,10.607-98.169,16.45-148.24,5.062,7.427,16.388,14.955,32.728,22.58,49.024-6.183,13.585-12.469,27.115-18.883,40.588,24.626,5.64,48.638,7.41,73.851,6.35,25.17-1.912,49.73-6.139,74.393-11.412l-3.7-89.615z"/>
<path fill="#3c3c36" d="m329.34,62.113c-0.264-6.38-4.629-12.586-8.938-18.668-3.541-4.999-7.269-9.527-7.435-13.562-0.14-3.394,0.527-5.868,2.752-5.883,2.859-0.022,3.67,4.662,3.832,8.616,3.418-0.24,5.132-0.335,8.553-0.458-0.076-7.75-3.811-16.299-12.877-16.151-8.199,0.132-11.088,7.559-10.822,14.017,0.264,6.38,4.453,12.317,8.761,18.346,3.528,4.943,7.442,9.842,7.604,13.797,0.154,3.714-0.704,6.506-3.293,6.481-3.641-0.037-4.338-5.176-4.54-10.101-3.412,0.342-5.12,0.541-8.528,0.987-0.155,8.36,3.672,17.316,13.398,17.103,9.245-0.199,11.859-6.611,11.533-14.524z"/>
<path fill="#3c3c36" d="m291.45,68.871-2.12-51.267c-3.479,0.278-5.223,0.44-8.701,0.804l2.447,59.344c8.086-0.853,12.133-1.171,20.238-1.513l-0.335-8.075c-4.614,0.197-6.922,0.339-11.534,0.707z"/>
<path fill="#3c3c36" d="m266.7,70.814-0.67-16.309c3.215-0.472,4.826-0.691,8.043-1.1l-0.393-9.529c-3.217,0.409-4.828,0.63-8.043,1.103l-0.643-15.585c4.469-0.654,6.703-0.954,11.18-1.483l-0.369-8.962c-7.951,0.945-11.924,1.526-19.861,2.844l2.447,59.341c7.939-1.315,11.91-1.901,19.861-2.845-0.147-3.585-0.226-5.376-0.375-8.961-4.47,0.531-6.704,0.831-11.174,1.486z"/>
<path fill="#3c3c36" d="m245.95,51.781c4.022-4.415,4.981-7.873,4.871-13.256-0.206-10.027-6.821-14.774-16.458-12.72-3.252,0.694-7.617,1.594-7.617,1.594l2.447,59.341c4.266-0.913,6.398-1.355,10.664-2.207,9.246-1.919,13.217-10.698,12.713-19.314-0.679-11.573-6.62-13.438-6.62-13.438zm-10.19-17.548c1.604-0.324,6.406-1.508,6.743,6.644,0.336,8.155-4.486,8.855-6.091,9.182l-0.65-15.826zm1.734,42.066-0.753-18.248c1.605-0.326,6.392-1.914,6.795,7.857,0.403,9.77-4.437,10.065-6.042,10.391z"/>
<path fill="#3c3c36" d="m212.87,81.321-0.672-16.305c3.205-0.737,4.809-1.1,8.014-1.812l-0.393-9.529c-3.206,0.714-4.809,1.077-8.014,1.812l-0.643-15.581c4.456-1.022,6.682-1.526,11.139-2.503l-0.369-8.961c-7.918,1.738-11.878,2.653-19.792,4.509,0.816,19.778,1.63,39.562,2.448,59.341,7.914-1.854,11.874-2.773,19.791-4.51-0.148-3.585-0.22-5.377-0.367-8.961-4.456,0.975-6.685,1.481-11.142,2.5z"/>
<path fill="#3c3c36" d="m197.32,51.364c0.002-8.677-5.818-16.788-15.442-13.619-3.459,0.819-5.188,1.228-8.65,2.041l2.448,59.34c3.461-0.81,5.191-1.219,8.65-2.036-0.344-8.348-0.688-16.689-1.032-25.032,0.928-0.219,1.392-0.332,2.321-0.55,1.842,7.986,3.679,15.976,5.519,23.963,3.461-0.822,5.189-1.233,8.649-2.049-2.237-9.145-4.474-18.291-6.712-27.436,3.191-3.04,4.25-8.966,4.249-14.622zm-14.36,12.622-0.726-17.602c2.403-0.57,6.418-1.199,6.769,7.279s-3.639,9.753-6.043,10.323z"/>
<path fill="#3c3c36" d="m133.35,59.001c4.022-4.434,4.973-7.953,4.869-13.327-0.196-10.076-6.882-14.542-16.46-12.787-3.25,0.599-7.632,1.259-7.632,1.259,0.816,19.782,1.632,39.563,2.448,59.343,4.275-0.671,6.412-1.03,10.684-1.794,9.312-1.816,13.206-10.754,12.707-19.345-0.674-11.579-6.616-13.349-6.616-13.349zm-10.2-17.656c1.608-0.28,6.414-1.402,6.75,6.752s-4.489,8.792-6.095,9.073c-0.261-6.327-0.394-9.493-0.655-15.825zm1.737,42.065-0.753-18.244c1.607-0.281,6.396-1.809,6.798,7.958,0.403,9.773-4.438,10.007-6.045,10.286z"/>
<path fill="#3c3c36" d="M100.21,86.727,99.702,74.496c-0.068-1.63-0.103-2.444-0.17-4.074,3.22-0.379,4.83-0.584,8.046-1.028l-0.393-9.527c-3.217,0.445-4.827,0.65-8.045,1.028l-0.647-15.585c4.472-0.523,6.708-0.823,11.181-1.472-0.148-3.584-0.224-5.378-0.372-8.963-7.941,1.156-11.918,1.649-19.878,2.392,0.816,19.781,1.631,39.56,2.447,59.343,7.96-0.741,11.935-1.235,19.878-2.391l-0.37-8.964c-4.469,0.653-6.706,0.948-11.177,1.472z"/>
<path fill="#3c3c36" d="m74.979,69.185c-0.033,0.778-0.048,1.169-0.081,1.947-0.259,0.011-0.39,0.014-0.648,0.024-0.127-0.769-0.193-1.155-0.321-1.924-1.664-10.242-3.325-20.48-4.986-30.72-0.083,0.001-6.304,0.096-6.304,0.096-0.817,10.278-1.632,20.553-2.451,30.831-0.064,0.776-0.095,1.16-0.162,1.936-0.257-0.003-0.388-0.004-0.646-0.008-0.098-0.775-0.149-1.166-0.244-1.941-1.585-10.305-3.169-20.609-4.753-30.914-3.239-0.088-4.859-0.16-8.103-0.354,3.487,19.897,6.974,39.796,10.47,59.698,2.721,0.074,4.08,0.093,6.798,0.1,0.962-9.375,1.922-18.748,2.882-28.122,0.137-1.389,0.206-2.087,0.344-3.479,0.127-0.002,0.193-0.004,0.321-0.006,0.253,1.388,0.377,2.079,0.631,3.463,1.73,9.333,3.464,18.665,5.197,27.999,2.713-0.089,4.07-0.148,6.781-0.297,1.848-19.961,3.694-39.923,5.537-59.884-3.224,0.258-4.838,0.368-8.063,0.545-0.733,10.338-1.466,20.674-2.199,31.01z"/>
</svg>
